# xmcd
#
# Track frame offsets: 
#        150
#        15862
#        30031
#        48871
#        67914
#        85920
#        104356
#        123523
#        138636
#        159788
#        179413
#        191635
#        208586
#        224864
#        245077
#        263039
#        279076
#
# Disc length: 4013 seconds
#
# Revision: 0
# Processed by: cddbd v1.5.2PL0 Copyright (c) Steve Scherf et al.
# Submitted via: ExactAudioCopyFreeDBPlugin 1.0
#
DISCID=e60fab11
DTITLE=JW Roy - Dry Goods and Groceries
DYEAR=2015
DGENRE=Country
TTITLE0=Building A Dream
TTITLE1=Over and Over
TTITLE2=Girl From The North Sea
TTITLE3=Dear John
TTITLE4=Take It Slow
TTITLE5=Our House In The Sun
TTITLE6=Crazy Love
TTITLE7=Drive
TTITLE8=These Loving Arms
TTITLE9=Angel Bird
TTITLE10=Lungs
TTITLE11=Life's A Fee
TTITLE12=The One
TTITLE13=Desperado's Waiting For The Train
TTITLE14=Gentle River
TTITLE15=Let The Train Blow The Whistle
TTITLE16=Feel Like Going Home
EXTD=
EXTT0=
EXTT1=
EXTT2=
EXTT3=
EXTT4=
EXTT5=
EXTT6=
EXTT7=
EXTT8=
EXTT9=
EXTT10=
EXTT11=
EXTT12=
EXTT13=
EXTT14=
EXTT15=
EXTT16=
PLAYORDER=
